<svg xmlns="http://www.w3.org/2000/svg" viewBox="0 0 600 200">
  <g transform="translate(80, 100)">
    <path d="M -35,-35 A 50 50 0 0 0 -35,35" fill="none" stroke="#E31E24" stroke-width="16" stroke-linecap="round"/>
    <path d="M -35,35 A 50 50 0 0 0 35,35" fill="none" stroke="#004B93" stroke-width="16" stroke-linecap="round"/>
    <path d="M 35,35 A 50 50 0 0 0 35,-35" fill="none" stroke="#58595B" stroke-width="16" stroke-linecap="round"/>
    <path d="M 35,-35 A 50 50 0 0 0 -35,-35" fill="none" stroke="#FFD100" stroke-width="16" stroke-linecap="round"/>
    <g transform="translate(-8, 5)">
      <path d="M -10,-5 L 0,8 L 18,-15" fill="none" stroke="#004B93" stroke-width="6" stroke-linecap="round" stroke-linejoin="round"/>
    </g>
  </g>
  <text x="180" y="85" font-family="Arial, Helvetica, sans-serif" font-size="52" font-weight="bold" fill="#003856" letter-spacing="-2">SBS</text>
  <text x="180" y="115" font-family="Arial, Helvetica, sans-serif" font-size="26" font-weight="300" fill="#003856" letter-spacing="4">DEUTSCHLAND</text>
  <g transform="translate(380, 40)">
    <circle cx="0" cy="0" r="5" fill="#FFD100"/>
    <text x="15" y="4" font-family="Arial, Helvetica, sans-serif" font-size="11" fill="#666666">IT CONSULTING / PROGRAMMING</text>
    <circle cx="0" cy="25" r="5" fill="#58595B"/>
    <text x="15" y="29" font-family="Arial, Helvetica, sans-serif" font-size="11" fill="#666666">Q&amp;R QUALITY &amp; RISK MANAGEMENT</text>
    <circle cx="0" cy="50" r="5" fill="#004B93"/>
    <text x="15" y="54" font-family="Arial, Helvetica, sans-serif" font-size="11" fill="#666666">SAP CONSULTING / REPORTING</text>
    <circle cx="0" cy="75" r="5" fill="#E31E24"/>
    <text x="15" y="79" font-family="Arial, Helvetica, sans-serif" font-size="11" fill="#666666">MET METROLOGIE / PMU</text>
  </g>
</svg>
